<?xml version="1.0" encoding="UTF-8"?>
<svg version="1.1" xmlns="http://www.w3.org/2000/svg" width="59" height="58">
<path d="M0 0 C19.47 0 38.94 0 59 0 C59 19.14 59 38.28 59 58 C39.53 58 20.06 58 0 58 C0 38.86 0 19.72 0 0 Z " fill="#020100" transform="translate(0,0)"/>
<path d="M0 0 C2.31 0 4.62 0 7 0 C8.1773496 3.07935966 9.33997891 6.16407516 10.5 9.25 C10.83386719 10.12269531 11.16773437 10.99539062 11.51171875 11.89453125 C11.82753906 12.73886719 12.14335937 13.58320312 12.46875 14.453125 C12.90864258 15.61569824 12.90864258 15.61569824 13.35742188 16.80175781 C14 19 14 19 14 23 C12.35 23 10.7 23 9 23 C8.505 20.525 8.505 20.525 8 18 C5.03 18 2.06 18 -1 18 C-1.33 19.65 -1.66 21.3 -2 23 C-3.98 23 -5.96 23 -8 23 C-6.85660291 19.54085633 -5.70987009 16.08282768 -4.5625 12.625 C-4.07426758 11.14773437 -4.07426758 11.14773437 -3.57617188 9.640625 C-3.26357422 8.69960938 -2.95097656 7.75859375 -2.62890625 6.7890625 C-2.34088135 5.91975098 -2.05285645 5.05043945 -1.75610352 4.15478516 C-1 2 -1 2 0 0 Z " fill="#EBF1EE" transform="translate(18,19)"/>
<path d="M0 0 C5.61 0 11.22 0 17 0 C17 1.32 17 2.64 17 4 C15.02 4 13.04 4 11 4 C11 10.27 11 16.54 11 23 C9.35 23 7.7 23 6 23 C6 16.73 6 10.46 6 4 C4.02 4 2.04 4 0 4 C0 2.68 0 1.36 0 0 Z " fill="#F1F9FD" transform="translate(33,19)"/>
<path d="M0 0 C2.76223278 2.76223278 2.57856291 5.20706617 3 9 C1.35 9 -0.3 9 -2 9 C-1.34 6.03 -0.68 3.06 0 0 Z " fill="#27161E" transform="translate(21,24)"/>
</svg>
